<?xml version="1.0" encoding="UTF-8"?>
<svg width="20px" height="20px" viewBox="0 0 20 20" version="1.1" xmlns="http://www.w3.org/2000/svg" xmlns:xlink="http://www.w3.org/1999/xlink">
    <title>stripes</title>
    <g id="stripes" stroke="none" stroke-width="1" fill="none" fill-rule="evenodd">
        <rect id="Rectangle" fill="#DDDDDD" x="0" y="0" width="20" height="20"></rect>
        <path d="M-3.11111111,5 L16,24.1111111 L15.1111111,25 L-4,5.88888889 L-3.11111111,5 Z M-6.11111111,8 L13,27.1111111 L12.1111111,28 L-7,8.88888889 L-6.11111111,8 Z M9.88888889,-6 L29,13.1111111 L28.1111111,14 L9,-5.11111111 L9.88888889,-6 Z M-0.111111111,2 L19,21.1111111 L18.1111111,22 L-1,2.88888889 L-0.111111111,2 Z M2.88888889,-1 L22,18.1111111 L21.1111111,19 L2,-0.111111111 L2.88888889,-1 Z M5.88888889,-4 L25,15.1111111 L24.1111111,16 L5,-3.11111111 L5.88888889,-4 Z" id="Shape" fill="#858585" fill-rule="nonzero"></path>
    </g>
</svg>